<svg xmlns="http://www.w3.org/2000/svg" xmlns:xlink="http://www.w3.org/1999/xlink" version="1.1" id="Capa_1" x="0px" y="0px" width="45.345px" height="45.354px" viewBox="274.967 398.268 45.345 45.354" enable-background="new 274.967 398.268 45.345 45.354" xml:space="preserve" class="svg replaced-svg">
<g>
	<path d="M310.594,399.895c0-0.615-0.356-1.198-0.907-1.458c-0.583-0.292-1.23-0.194-1.717,0.194l-14.349,11.434l16.973,16.973   V399.895z"></path>
	<path d="M319.838,440.856l-42.107-42.107c-0.632-0.632-1.659-0.632-2.29,0c-0.632,0.632-0.632,1.658,0,2.29l10.19,10.193h-0.949   c-1.004,0-1.878,0.454-2.461,1.166c-0.486,0.551-0.777,1.296-0.777,2.073v12.956c0,1.781,1.458,3.239,3.239,3.239h7.515   l15.774,12.6c0.292,0.227,0.648,0.356,1.005,0.356c0.227,0,0.485-0.064,0.712-0.162c0.551-0.259,0.907-0.842,0.907-1.458v-5.808   l6.951,6.951c0.317,0.317,0.732,0.477,1.146,0.477c0.415,0,0.829-0.159,1.146-0.473C320.47,442.515,320.47,441.491,319.838,440.856   z"></path>
</g>
</svg>