<svg xmlns="http://www.w3.org/2000/svg" xmlns:xlink="http://www.w3.org/1999/xlink" version="1.1" id="Capa_1" x="0px" y="0px" width="45.354px" height="42.333px" viewBox="274.963 399.778 45.354 42.333" enable-background="new 274.963 399.778 45.354 42.333" xml:space="preserve" class="svg replaced-svg">
<g>
	<path d="M301.32,399.928c-0.526-0.251-1.146-0.185-1.6,0.182l-14.707,11.765h-7.027c-1.666,0-3.024,1.357-3.024,3.023v12.095   c0,1.669,1.358,3.023,3.024,3.023h7.027l14.704,11.765c0.275,0.218,0.611,0.33,0.946,0.33c0.225,0,0.447-0.052,0.656-0.151   c0.523-0.251,0.855-0.78,0.855-1.361v-39.307C302.175,400.711,301.843,400.182,301.32,399.928z"></path>
	<path d="M309.829,410.254c-0.596-0.587-1.552-0.578-2.138,0.012c-0.587,0.596-0.58,1.551,0.012,2.141   c2.286,2.256,3.544,5.289,3.544,8.539c0,3.25-1.258,6.284-3.544,8.539c-0.592,0.583-0.599,1.542-0.012,2.139   c0.297,0.299,0.687,0.446,1.073,0.446c0.385,0,0.769-0.146,1.064-0.438c2.867-2.821,4.441-6.619,4.441-10.686   S312.696,413.081,309.829,410.254z"></path>
	<path d="M314.094,405.994c-0.595-0.59-1.55-0.584-2.14,0.009c-0.587,0.593-0.581,1.551,0.009,2.138   c3.438,3.408,5.33,7.955,5.33,12.805c0,4.849-1.893,9.394-5.33,12.802c-0.59,0.589-0.596,1.548-0.009,2.141   c0.299,0.296,0.687,0.444,1.073,0.444c0.384,0,0.771-0.145,1.066-0.438c4.017-3.976,6.223-9.285,6.223-14.949   C320.317,415.282,318.111,409.973,314.094,405.994z"></path>
</g>
</svg>