<?xml version="1.0" encoding="utf-8"?>
<!-- Generator: Adobe Illustrator 24.3.0, SVG Export Plug-In . SVG Version: 6.00 Build 0)  -->
<svg version="1.1" id="圖層_1" xmlns="http://www.w3.org/2000/svg" xmlns:xlink="http://www.w3.org/1999/xlink" x="0px" y="0px"
	 viewBox="0 0 448 448" style="enable-background:new 0 0 448 448;" xml:space="preserve">
<style type="text/css">
	.st0{fill:#AAA7A7;}
</style>
<path class="st0" d="M372.03,0H74.85C35.75,0,0,35.84,0,75.04v299.04C0,412.16,35.75,448,74.85,448h298.29
	c39.1,0,74.85-35.84,74.85-75.04V75.04C446.88,35.84,411.13,0,372.03,0z M363.09,348.32c0,8.96-6.7,15.68-15.64,15.68
	C202.21,364,83.79,245.28,83.79,99.68c0-8.96,6.7-15.68,15.64-15.68h54.74c8.94,0,15.64,6.72,15.64,15.68
	c0,19.04,3.35,36.96,8.94,56c1.12,4.48,0,11.2-3.35,15.68l-35.75,34.72c21.23,43.68,59.21,79.52,102.78,103.04l34.63-34.72
	c4.47-4.48,11.17-6.72,15.64-3.36c16.76,6.72,35.75,8.96,55.86,8.96c8.94,0,15.64,6.72,15.64,15.68v52.64H363.09z"/>
</svg>
